<svg version="1.1" viewBox="0.0 0.0 960.0 720.0" fill="none" stroke="none" stroke-linecap="square" stroke-miterlimit="10" xmlns:xlink="http://www.w3.org/1999/xlink" xmlns="http://www.w3.org/2000/svg"><clipPath id="p.0"><path d="m0 0l960.0 0l0 720.0l-960.0 0l0 -720.0z" clip-rule="nonzero"/></clipPath><g clip-path="url(#p.0)"><path fill="#000000" fill-opacity="0.0" d="m0 0l960.0 0l0 720.0l-960.0 0z" fill-rule="evenodd"/><path fill="#ffffff" d="m77.38885 593.98413l0 22.966309l1.1740723 6.8569946l2.3011703 5.7767944l3.428276 4.555725l4.6023483 4.602661l6.8565598 3.4284668l8.030624 1.1741943l8.030632 -1.1741943l26.393051 -8.031128l17.188354 -3.4285278l19.489532 -4.602661l21.79071 -3.4284668l22.964783 -2.3013306l26.393051 -2.3013306l27.520142 -1.1271973l20.616638 1.1271973l19.536499 1.1741333l18.31549 3.4285278l17.235321 3.4284668l16.061249 4.602661l14.8871765 4.602661l12.632965 5.7298584l12.586029 5.7297974l10.331787 5.7298584l10.331818 6.9039917l17.188354 12.586853l13.760071 12.633789l11.505859 10.33252l0 -22.966309l-11.505859 -10.33252l-13.760071 -12.586853l-17.188354 -12.633789l-10.331818 -6.8570557l-10.331787 -5.7767944l-12.586029 -5.7297974l-12.632965 -5.7298584l-14.8871765 -4.555664l-16.061249 -4.602661l-17.235321 -3.4285278l-18.31549 -3.4754639l-19.536499 -1.1271973l-20.616638 -1.1741333l-27.520142 1.1741333l-26.393051 2.3013306l-22.964783 2.3013306l-21.79071 3.4285278l-19.489532 4.602661l-17.188354 3.4284668l-26.393051 8.031189l-8.030632 1.1271973l-8.030624 -1.1271973l-6.8565598 -3.4285278l-4.6023483 -4.602661l-3.428276 -4.602661l-2.3011703 -5.7297974l-1.1740723 -6.9039917z" fill-rule="evenodd"/><path fill="#ffffff" d="m686.4485 593.98413l-20.663574 1.1741333l-19.489563 1.1271973l-18.31543 3.4754639l-17.235352 3.4285278l-16.06128 4.602661l-14.887146 4.555664l-12.632996 5.7298584l-12.632996 5.7297974l-10.28479 5.7767944l-10.331848 6.8570557l-17.23529 12.633789l-13.760071 12.586853l-11.458923 10.33252l0 22.966309l11.458923 -10.33252l13.760071 -12.633789l17.23529 -12.586853l10.331848 -6.9039917l10.28479 -5.7298584l12.632996 -5.7297974l12.632996 -5.7298584l14.887146 -4.602661l16.06128 -4.602661l17.235352 -3.4284668l18.31543 -3.4285278l19.489563 -1.1741333l20.663574 -1.1271973l27.520142 1.1271973l26.393066 2.3013306l22.917847 2.3013306l21.79071 3.4284668l19.536438 4.602661l17.188416 3.4285278l26.393005 8.031128l8.03064 1.1741943l8.03064 -1.1741943l6.8565674 -3.4284668l4.602356 -4.602661l3.4282837 -4.555725l2.3011475 -5.7767944l1.1270752 -6.8569946l0 -22.966309l-1.1270752 6.9039917l-2.3011475 5.7297974l-3.4282837 4.602661l-4.602356 4.602661l-6.8565674 3.4285278l-8.03064 1.1271973l-8.03064 -1.1271973l-26.393005 -8.031189l-17.188416 -3.4284668l-19.536438 -4.602661l-21.79071 -3.4285278l-22.917847 -2.3013306l-26.393066 -2.3013306l-27.520142 -1.1741333z" fill-rule="evenodd"/><path fill="#ffffff" d="m273.55215 25.086422l-27.520142 1.127182l-26.393051 2.3013268l-26.393066 5.7298393l-26.393051 6.903984l-24.044907 9.158344l-21.79071 10.332493l-19.536499 10.332493l-8.030624 6.8570175l-6.8565598 5.729843l-3.4282837 3.428505l-3.475235 5.776802l-1.1271057 4.5556946l-1.1740723 5.7298355l0 468.01498l1.1740723 6.9039917l2.3011703 5.7298584l3.428276 4.555664l4.6023483 4.602661l6.8565598 3.4285278l8.030624 1.1741333l8.030632 -1.1741333l26.393051 -8.031189l17.188354 -3.4285278l19.489532 -4.6026l21.79071 -3.4285278l22.964783 -2.3013306l26.393051 -2.3013306l27.520142 -1.1271973l20.616638 1.1271973l19.536499 1.1741333l18.31549 3.4285278l17.235321 3.4285278l16.061249 4.6026l14.8871765 4.602661l12.632965 5.7298584l12.586029 5.7298584l10.331787 5.7297974l10.331818 6.9039917l17.188354 12.586853l13.760071 12.63385l11.505859 10.3324585l0 -520.7576l0 -4.602661l-2.301178 -5.7298355l-2.3011475 -4.6026535l-3.4282837 -3.4285126l-5.7294617 -5.7298355l-12.632965 -11.459679l-14.934143 -12.63382l-17.188385 -12.63382l-20.616638 -13.761005l-12.632965 -5.7298355l-11.458893 -5.7298393l-13.760101 -4.6026535l-13.807037 -4.555691l-14.8871765 -3.4754753l-16.061249 -2.3013287l-16.061249 -2.254362z" fill-rule="evenodd"/><path fill="#ffffff" d="m669.26013 25.086422l-16.06128 2.254362l-16.061218 2.3013287l-14.934143 3.4754753l-13.760071 4.555691l-13.760132 4.6026535l-11.458862 5.7298393l-12.632996 5.7298355l-20.616638 13.761005l-17.23529 12.63382l-14.887207 12.63382l-12.632965 11.459679l-5.7294617 5.7298355l-3.4282837 3.4285126l-2.301178 4.6026535l-2.301178 5.7298355l0 4.602661l0 520.7576l11.458923 -10.3324585l13.760071 -12.63385l17.23529 -12.586853l10.331848 -6.9039917l10.28479 -5.7297974l12.632996 -5.7298584l12.632996 -5.7298584l14.887146 -4.602661l16.06128 -4.6026l17.235352 -3.4285278l18.31543 -3.4285278l19.489563 -1.1741333l20.663574 -1.1271973l27.520142 1.1271973l26.393066 2.3013306l22.917847 2.3013306l21.79071 3.4285278l19.536438 4.6026l17.188416 3.4285278l26.393005 8.031189l8.03064 1.1741333l8.03064 -1.1741333l6.8565674 -3.4285278l4.602356 -4.602661l3.4282837 -4.555664l2.3011475 -5.7298584l1.1270752 -6.9039917l0 -468.01498l-1.1270752 -5.7298355l-1.1271362 -4.5556946l-3.4752197 -5.776802l-3.4282837 -3.428505l-6.8565674 -5.729843l-8.030579 -6.8570175l-19.536499 -10.332493l-21.79071 -10.332493l-24.091919 -9.158344l-26.34607 -6.903984l-26.393066 -5.7298393l-26.393066 -2.3013268l-27.520142 -1.127182z" fill-rule="evenodd"/></g></svg>