<svg height="300px" width="300px" fill="#000000" xmlns="http://www.w3.org/2000/svg" xmlns:xlink="http://www.w3.org/1999/xlink" version="1.1" x="0px" y="0px" viewBox="0 0 82.514 89" enable-background="new 0 0 82.514 89" xml:space="preserve"><path d="M54.169,49.815c8.15-4.542,13.673-13.236,13.675-23.23C67.84,11.899,55.941,0,41.259,0  C26.572,0,14.672,11.899,14.672,26.585c0,9.994,5.52,18.688,13.673,23.23C11.887,55.235,0.003,70.724,0,89h5.503  C5.538,69.25,21.51,53.278,41.257,53.243C61.004,53.278,76.976,69.25,77.01,89h5.504C82.511,70.724,70.626,55.235,54.169,49.815z   M20.17,26.585C20.193,14.94,29.613,5.521,41.259,5.498c11.643,0.022,21.064,9.442,21.082,21.087  c-0.018,11.643-9.439,21.064-21.082,21.084C29.613,47.649,20.193,38.228,20.17,26.585z"/></svg>